<svg width="879" height="892" viewBox="0 0 879 892" fill="none" xmlns="http://www.w3.org/2000/svg">
<path d="M749.544 817.596C578.059 916.601 300.079 916.601 128.594 817.596C13.0574 750.91 -24.6204 656.208 15.5403 571.376C17.2163 567.797 19.0577 564.238 21.0233 560.72C26.5272 550.861 32.8315 541.471 39.8726 532.643C61.0392 505.994 90.6063 481.04 128.698 459.108C300.183 360.103 578.163 360.103 749.648 459.108C806.402 491.862 844.37 531.381 863.55 573.197C867.954 582.756 871.418 592.721 873.895 602.95C874.909 607.088 875.737 611.227 876.378 615.365C887.675 687.658 845.404 762.248 749.544 817.596Z" fill="#F5F5F5"/>
<path d="M876.316 615.344L484.02 841.825L15.5403 571.356C17.2162 567.776 19.0577 564.217 21.0233 560.7C26.5272 550.84 32.8315 541.45 39.8726 532.622C61.0392 505.993 90.6063 481.04 128.698 459.108C300.183 360.103 578.163 360.103 749.648 459.108C806.402 491.862 844.37 531.381 863.55 573.197C867.954 582.756 871.418 592.721 873.895 602.95C874.847 607.068 875.633 611.185 876.316 615.344Z" fill="#3A4569"/>
<path opacity="0.4" d="M876.316 615.344L484.02 841.825L15.5403 571.356C17.2162 567.776 19.0577 564.217 21.0233 560.7C26.5272 550.84 32.8315 541.45 39.8726 532.622C61.0392 505.993 90.6063 481.04 128.698 459.108C300.183 360.103 578.163 360.103 749.648 459.108C806.402 491.862 844.37 531.381 863.55 573.197C867.954 582.756 871.418 592.721 873.895 602.95C874.847 607.068 875.633 611.185 876.316 615.344Z" fill="black"/>
<path d="M873.833 602.95L484.02 828.003L21.1062 560.7C26.6101 550.84 32.9144 541.45 39.9555 532.622C61.0393 505.993 90.6064 481.04 128.698 459.108C300.183 360.103 578.163 360.103 749.648 459.108C806.402 491.862 844.37 531.381 863.55 573.197C867.932 582.759 871.376 592.723 873.833 602.95Z" fill="#3A4569"/>
<path d="M863.447 573.197L486.875 790.657L39.9553 532.622C61.0392 505.993 90.6062 481.04 128.698 459.108C300.183 360.103 578.163 360.103 749.648 459.108C806.299 491.862 844.266 531.319 863.447 573.197Z" fill="#3A4569"/>
<path d="M863.447 573.197L486.875 790.657L39.9553 532.622C61.0392 505.993 90.6062 481.04 128.698 459.108C300.183 360.103 578.163 360.103 749.648 459.108C806.299 491.862 844.266 531.319 863.447 573.197Z" fill="#3A4569"/>
<path opacity="0.4" d="M863.447 573.197L486.875 790.657L39.9553 532.622C61.0392 505.993 90.6062 481.04 128.698 459.108C300.183 360.103 578.163 360.103 749.648 459.108C806.299 491.862 844.266 531.319 863.447 573.197Z" fill="white"/>
<path opacity="0.2" d="M528.65 702.08C487.434 725.874 420.644 725.874 379.428 702.08C351.661 686.044 342.62 663.305 352.261 642.904C352.675 642.035 353.11 641.187 353.586 640.338C354.908 637.969 356.424 635.713 358.117 633.593C364.058 626.427 371.285 620.434 379.428 615.923C420.644 592.15 487.434 592.15 528.65 615.923C542.285 623.807 551.41 633.304 556.024 643.339C557.078 645.64 557.909 648.038 558.507 650.498C558.74 651.454 558.926 652.42 559.065 653.394C561.838 670.857 551.679 688.775 528.65 702.08Z" fill="black"/>
<path opacity="0.2" d="M725.274 617.206C701.438 630.966 662.809 630.966 638.994 617.206C622.938 607.875 617.703 594.777 623.206 583.046C623.455 582.549 623.703 582.053 623.972 581.556C624.745 580.193 625.623 578.892 626.6 577.666C630.057 573.507 634.269 570.039 639.014 567.445C662.829 553.686 701.459 553.686 725.295 567.445C733.178 571.997 738.454 577.501 741.123 583.294C741.728 584.628 742.213 586.013 742.571 587.432C742.695 588.012 742.82 588.591 742.902 589.15C744.454 599.143 738.599 609.509 725.274 617.206Z" fill="black"/>
<path opacity="0.2" d="M282.844 612.385L167.659 545.802C166.468 545.116 165.48 544.129 164.792 542.939C164.105 541.75 163.743 540.4 163.743 539.026C163.743 537.652 164.105 536.303 164.792 535.113C165.48 533.924 166.468 532.936 167.659 532.25L213.633 505.704C217.332 503.568 221.528 502.444 225.8 502.444C230.071 502.444 234.267 503.568 237.966 505.704L353.151 572.204C354.341 572.89 355.33 573.877 356.017 575.067C356.705 576.257 357.067 577.606 357.067 578.98C357.067 580.354 356.705 581.704 356.017 582.893C355.33 584.083 354.341 585.07 353.151 585.756L307.176 612.303C303.484 614.451 299.292 615.589 295.021 615.604C290.75 615.618 286.55 614.508 282.844 612.385Z" fill="black"/>
<path d="M742.654 520.725L760.779 531.257C760.779 531.257 751.634 502.062 756.641 472.681C757.86 465.76 760.366 459.128 764.028 453.129C765.435 450.17 776.442 431.838 766.759 423.396C757.076 414.954 734.543 431.672 735.557 477.006C736.065 491.82 738.45 506.511 742.654 520.725Z" fill="#3A4569"/>
<path opacity="0.3" d="M742.654 520.725L760.779 531.257C760.779 531.257 751.634 502.062 756.641 472.681C757.86 465.76 760.366 459.128 764.028 453.129C765.435 450.17 776.442 431.838 766.759 423.396C757.076 414.954 734.543 431.672 735.557 477.006C736.065 491.82 738.45 506.511 742.654 520.725Z" fill="black"/>
<path d="M751.075 526.477C750.903 526.475 750.735 526.42 750.595 526.321C750.454 526.221 750.348 526.081 750.289 525.919C750.289 525.732 743.357 506.697 743.709 476.157C744.061 445.618 760.262 429.045 760.386 428.879C760.465 428.8 760.558 428.738 760.661 428.695C760.764 428.653 760.875 428.631 760.986 428.631C761.097 428.631 761.208 428.653 761.311 428.695C761.414 428.738 761.507 428.8 761.586 428.879C761.665 428.958 761.727 429.051 761.77 429.154C761.813 429.257 761.835 429.368 761.835 429.479C761.835 429.591 761.813 429.701 761.77 429.804C761.727 429.907 761.665 430 761.586 430.079C761.421 430.245 745.758 446.177 745.406 476.178C745.054 506.18 751.799 525.153 751.882 525.339C751.95 525.551 751.934 525.78 751.837 525.98C751.741 526.18 751.572 526.336 751.365 526.415C751.274 526.458 751.175 526.479 751.075 526.477Z" fill="white"/>
<path d="M756.703 528.96L786.663 546.568C786.663 546.568 800.381 544.499 799.326 531.65C798.271 518.801 792.726 515.697 799.657 510.028C806.588 504.359 808.389 503.966 808.058 498.421C807.726 492.876 803.919 490.434 802.223 488.22C800.526 486.006 795.56 481.392 799.016 474.688C802.471 467.985 807.147 461.508 800.195 458.446C796.057 456.605 789.084 458.901 784.47 463.805C779.856 468.709 776.028 472.247 771.642 473.385C767.255 474.523 758.151 474.606 758.441 482.158C758.731 489.71 760.717 492.296 758.896 495.648C755.441 501.959 740.709 505.352 756.703 528.96Z" fill="#3A4569"/>
<path d="M768.911 536.988C768.697 536.984 768.493 536.902 768.337 536.757C768.18 536.612 768.083 536.414 768.062 536.202C768.062 535.747 764.773 491.075 795.809 461.715C795.887 461.636 795.981 461.574 796.084 461.531C796.187 461.489 796.297 461.467 796.409 461.467C796.52 461.467 796.63 461.489 796.733 461.531C796.836 461.574 796.93 461.636 797.009 461.715C797.163 461.877 797.249 462.092 797.249 462.315C797.249 462.539 797.163 462.754 797.009 462.915C766.573 491.675 769.759 535.561 769.8 535.995C769.809 536.107 769.795 536.219 769.76 536.325C769.725 536.431 769.67 536.529 769.596 536.614C769.523 536.698 769.434 536.768 769.334 536.818C769.234 536.868 769.126 536.898 769.014 536.905L768.911 536.988Z" fill="white"/>
<path d="M774.249 498.71C774.034 498.711 773.827 498.63 773.67 498.484C773.512 498.338 773.416 498.138 773.401 497.924C773.166 494.498 772.241 491.156 770.68 488.098C769.118 485.04 766.954 482.329 764.317 480.13C764.16 479.99 764.06 479.797 764.037 479.587C764.015 479.378 764.071 479.167 764.195 478.997C764.319 478.827 764.501 478.708 764.708 478.665C764.914 478.623 765.129 478.658 765.31 478.764C768.168 481.089 770.513 483.981 772.197 487.257C773.882 490.534 774.869 494.123 775.097 497.8C775.106 497.911 775.092 498.023 775.057 498.13C775.022 498.236 774.966 498.334 774.893 498.419C774.82 498.503 774.731 498.573 774.631 498.623C774.531 498.673 774.422 498.702 774.311 498.71H774.249Z" fill="white"/>
<path d="M772.056 506.325C771.89 506.331 771.727 506.287 771.586 506.199C771.446 506.111 771.335 505.983 771.268 505.832C771.201 505.68 771.181 505.512 771.211 505.349C771.241 505.186 771.319 505.036 771.435 504.918C771.766 504.545 779.566 496.083 797.65 498.586C797.859 498.632 798.042 498.754 798.165 498.929C798.287 499.103 798.339 499.318 798.31 499.529C798.282 499.741 798.174 499.934 798.01 500.069C797.845 500.205 797.636 500.274 797.422 500.262C780.291 497.903 772.759 505.973 772.697 506.056C772.616 506.144 772.517 506.214 772.406 506.261C772.295 506.307 772.176 506.329 772.056 506.325Z" fill="white"/>
<path d="M299.769 418.782L240.656 384.663V278.892C240.656 273.326 242.621 269.022 246.014 267.057C247.633 266.21 249.453 265.822 251.277 265.935C253.1 266.048 254.858 266.658 256.36 267.698L286.382 285.099C293.893 289.424 299.769 300.576 299.769 310.466V418.782ZM245.083 382.118L295.341 411.085V310.528C295.341 302.355 290.231 292.486 284.168 288.989L254.042 271.588C253.211 270.989 252.239 270.614 251.22 270.502C250.201 270.389 249.17 270.543 248.228 270.947C246.159 272.085 245.083 275.085 245.083 278.954V382.118Z" fill="#37474F"/>
<path d="M285.947 281.147L260.063 266.209C259.239 265.733 258.304 265.482 257.352 265.482C256.401 265.482 255.466 265.733 254.641 266.209C253.817 266.685 253.133 267.37 252.657 268.194C252.182 269.018 251.932 269.954 251.932 270.905C251.938 271.856 252.191 272.789 252.666 273.612C253.141 274.436 253.822 275.121 254.642 275.602L280.526 290.541C281.351 291.017 282.286 291.267 283.237 291.267C284.189 291.267 285.124 291.016 285.948 290.54C286.773 290.064 287.457 289.38 287.932 288.555C288.408 287.731 288.658 286.796 288.658 285.844C288.652 284.893 288.399 283.961 287.924 283.137C287.449 282.314 286.768 281.628 285.947 281.147Z" fill="#3A4569"/>
<path d="M305.335 567.155C305.106 571.328 303.899 575.388 301.811 579.008C299.722 582.627 296.811 585.705 293.313 587.991C286.672 591.819 281.271 588.715 281.271 581.039C281.511 576.878 282.726 572.832 284.818 569.227C286.91 565.622 289.82 562.559 293.313 560.286C299.934 556.396 305.335 559.5 305.335 567.155Z" fill="#263238"/>
<path d="M284.396 588.549L290.913 592.294V576.611L284.396 588.549Z" fill="#263238"/>
<path d="M310.776 570.321C310.546 574.49 309.338 578.547 307.25 582.163C305.162 585.779 302.251 588.853 298.755 591.136C292.113 594.984 286.734 591.86 286.734 584.204C286.96 580.031 288.167 575.971 290.255 572.351C292.344 568.731 295.256 565.654 298.755 563.369C305.397 559.541 310.776 562.645 310.776 570.321Z" fill="#455A64"/>
<path d="M323.191 394.905V553.561C323.191 558.01 321.639 561.072 319.197 562.252L270.222 590.784V415.451L321.453 386.194C322.561 388.967 323.15 391.919 323.191 394.905Z" fill="#3A4569"/>
<path opacity="0.4" d="M323.191 394.905V553.561C323.191 558.01 321.639 561.072 319.197 562.252L270.222 590.784V415.451L321.453 386.194C322.561 388.967 323.15 391.919 323.191 394.905Z" fill="black"/>
<path d="M321.453 386.091L270.222 415.451L222.282 385.511L176.576 356.917L225.51 328.467L225.758 328.322C226.855 327.721 228.1 327.442 229.349 327.519C230.597 327.596 231.799 328.025 232.814 328.757L312.701 374.897C316.748 377.588 319.818 381.514 321.453 386.091Z" fill="#3A4569"/>
<path opacity="0.2" d="M321.453 386.091L297.803 399.602L293.934 401.816L270.222 415.451L222.282 385.511L176.576 356.917L200.702 342.888L205.109 340.323L225.51 328.467L225.758 328.322C226.855 327.721 228.1 327.442 229.349 327.519C230.597 327.596 231.799 328.025 232.814 328.757L312.701 374.897C316.748 377.588 319.818 381.514 321.453 386.091Z" fill="black"/>
<path d="M263.395 590.205L183.508 544.085C177.694 540.713 172.976 531.671 172.976 523.953V365.296C172.976 357.537 177.694 353.979 183.508 357.331L263.395 403.471C269.209 406.823 273.926 415.885 273.926 423.582V582.239C273.926 589.998 269.209 593.557 263.395 590.205Z" fill="#3A4569"/>
<path d="M300.555 573.135V411.437C300.494 407.34 299.555 403.305 297.803 399.602C295.868 395.023 292.603 391.131 288.43 388.429L205.109 340.219L200.702 342.785L286.216 392.256C289.683 394.604 292.37 397.932 293.934 401.816C295.323 404.837 296.076 408.112 296.148 411.437V575.701L300.555 573.135Z" fill="#37474F"/>
<path opacity="0.2" d="M203.185 543.278C201.916 542.351 200.882 541.141 200.163 539.743C199.445 538.346 199.062 536.801 199.046 535.23V387.125C199.046 384.022 200.929 382.594 203.185 383.939C204.455 384.864 205.492 386.074 206.21 387.471C206.929 388.869 207.31 390.416 207.323 391.988V540.092C207.323 543.195 205.44 544.623 203.185 543.278Z" fill="black"/>
<path opacity="0.2" d="M223.461 552.423C222.191 551.499 221.154 550.289 220.436 548.891C219.717 547.493 219.336 545.946 219.323 544.375V396.291C219.323 393.188 221.206 391.76 223.461 393.105C224.73 394.032 225.764 395.242 226.483 396.64C227.201 398.037 227.584 399.582 227.6 401.153V549.237C227.662 552.341 225.779 553.768 223.461 552.423Z" fill="black"/>
<path opacity="0.2" d="M243.801 563.596C242.532 562.669 241.498 561.459 240.779 560.062C240.061 558.664 239.678 557.119 239.662 555.548V407.444C239.662 404.361 241.545 402.933 243.801 404.278C245.068 405.201 246.103 406.407 246.822 407.801C247.54 409.195 247.923 410.738 247.939 412.306V560.41C248.021 563.514 246.139 564.941 243.801 563.596Z" fill="black"/>
<path d="M491.427 629.869C491.427 629.869 488.841 630.51 489.565 636.407C490.289 642.304 491.2 649.856 491.2 649.856C491.2 649.856 492.048 662.084 491.986 670.071C491.924 678.058 491.468 688.693 493.082 694.465C494.696 700.238 498.09 706.238 503.283 706.032C508.476 705.825 520.725 698.211 519.525 677.996C519.215 672.492 513.525 653.891 513.525 653.891C513.525 653.891 514.435 635.807 514.311 631.359C514.34 630.641 514.16 629.93 513.793 629.313C513.426 628.696 512.887 628.199 512.242 627.883L491.427 629.869Z" fill="#37474F"/>
<path d="M488.51 613.461L491.696 631.483C491.696 631.483 493.248 636.924 502.973 636.924C505.179 636.969 507.33 636.224 509.036 634.825C510.743 633.425 511.895 631.462 512.283 629.29L512.863 612.034L488.51 613.461Z" fill="#945959"/>
<path d="M385.801 273.306L376.842 289.858L333.764 304.921C333.764 304.921 326.418 299.976 325.798 300.576C325.177 301.176 322.466 306.783 332.584 311.583L340.095 325.198C340.095 325.198 392.236 314.853 396.746 311.583C401.257 308.314 408.664 292.962 408.664 292.962C408.664 292.962 403.533 272.892 385.801 273.306Z" fill="#945959"/>
<path d="M419.299 652.318L412.202 647.725V638.538L419.03 639.159L419.299 652.318Z" fill="#263238"/>
<path d="M428.982 628.938L428.713 646.628L419.299 652.318L418.223 637.235C418.223 637.235 425.589 628.814 428.982 628.938Z" fill="#263238"/>
<path d="M403.243 608.185C403.243 608.185 402.747 608.578 396.767 624.613C390.787 640.649 384.559 646.587 380.939 649.587C377.318 652.587 369.104 658.153 369.104 662.436C369.104 666.719 376.035 670.092 386.173 669.223C396.312 668.354 410.588 665.871 414.251 653.705C415.451 649.773 415.678 642.594 420.272 637.649C424.865 632.704 428.983 628.938 428.983 628.938C428.983 628.938 429.458 612.716 424.844 608.371L403.243 608.185Z" fill="#37474F"/>
<path d="M402.788 588.467L403.285 609.82C403.285 609.82 404.05 616.316 414.065 615.013C424.079 613.709 424.741 609.095 424.741 609.095L429.272 588.405L402.788 588.467Z" fill="#945959"/>
<path d="M442.949 484.785C442.387 487.404 442.103 490.074 442.1 492.751C442.101 495.232 442.351 497.707 442.845 500.138C444.459 507.932 444.459 515.973 442.845 523.767L429.334 588.467C425.252 590.618 420.707 591.742 416.092 591.742C411.478 591.742 406.933 590.618 402.85 588.467C402.85 588.467 402.022 524.656 402.022 477.171C402.022 388.036 412.244 341.171 412.244 341.171H459.212V410.382L443.611 482.054L442.949 484.785Z" fill="#945959"/>
<path d="M465.315 390.622L449.011 479.22C447.326 480.4 445.488 481.347 443.549 482.034C426.479 488.241 401.96 477.151 401.96 477.151C401.96 388.015 412.182 341.15 412.182 341.15L462.853 340.964L465.315 390.622Z" fill="#37474F"/>
<path d="M464.695 394.057L459.15 359.296H422.175C422.175 359.296 424.141 380.67 440.197 391.387L452.342 461.095L464.695 394.057Z" fill="#263238"/>
<path d="M516.256 513.608L512.863 612.013C509.505 614.855 505.316 616.531 500.924 616.788C496.533 617.046 492.176 615.871 488.51 613.44L465.543 484.392V483.979L445.266 385.325C427.803 380.608 418.368 360.207 414.499 348.847C413.587 346.331 412.806 343.769 412.161 341.171L500.841 333.143C501.878 335.687 502.736 338.3 503.407 340.964C507.031 355.177 509.043 369.752 509.407 384.415C509.407 398.029 509.097 453.025 508.973 474.895V475.061C508.968 480.963 510.136 486.807 512.408 492.255C515.227 499.008 516.54 506.295 516.256 513.608Z" fill="#945959"/>
<path d="M509.407 384.415C509.407 398.029 509.097 453.025 508.973 474.895C502.973 479.757 495.916 483.143 488.37 484.781C480.824 486.42 472.998 486.265 465.522 484.33C463.632 483.888 461.772 483.321 459.957 482.634L445.266 385.325C420.83 380.008 414.23 348.868 414.23 348.868H414.54L503.51 341.068C507.091 355.251 509.069 369.791 509.407 384.415Z" fill="#37474F"/>
<path d="M435.334 133.167C435.334 133.167 444.48 117.546 463.37 120.132C482.261 122.718 504.504 144.816 501.834 159.858L435.334 133.167Z" fill="#3A4569"/>
<path opacity="0.4" d="M435.334 133.167C435.334 133.167 444.48 117.546 463.37 120.132C482.261 122.718 504.504 144.816 501.834 159.858L435.334 133.167Z" fill="white"/>
<path d="M516.697 202.393C525.695 180.987 505.141 151.929 470.789 137.488C436.437 123.048 401.294 128.694 392.296 150.1C383.298 171.506 403.851 200.565 438.204 215.005C472.556 229.445 507.699 223.799 516.697 202.393Z" fill="#3A4569"/>
<path d="M493.144 233.372C469.081 242.166 430.017 245.27 430.017 216.82C430.017 215.827 430.017 214.896 430.017 213.944C430.017 203.122 429.603 195.612 429.169 190.522C429.169 190.522 429.169 190.377 429.169 190.294C429 187.182 428.578 184.089 427.906 181.045L427.41 175.211L426.975 170.348L426.727 167.203L425.568 153.734L424.989 146.906C427.62 145.254 430.637 144.319 433.741 144.195C435.199 144.056 436.664 144.014 438.128 144.071C444.211 144.299 452.611 146.14 463.412 151.499C468.705 154.138 473.717 157.306 478.371 160.955C479.923 162.155 481.33 163.355 482.613 164.555C493.413 174.445 496.124 183.177 496.124 183.177V200.64C496.124 205.688 503.51 214.585 507.752 205.336C507.649 205.295 517.228 224.662 493.144 233.372Z" fill="#263238"/>
<path d="M434.714 222.468C434.714 222.468 423.417 220.772 412.947 232.814C402.478 244.856 385.801 273.368 385.801 273.368C385.801 273.368 402.56 279.078 408.664 293.024L431.424 253.256L434.714 222.468Z" fill="#3A4569"/>
<path opacity="0.6" d="M434.714 222.468C434.714 222.468 423.417 220.772 412.947 232.814C402.478 244.856 385.801 273.368 385.801 273.368C385.801 273.368 402.56 279.078 408.664 293.024L431.424 253.256L434.714 222.468Z" fill="black"/>
<path d="M445.121 222.468L472.019 223.441C472.019 223.441 492.296 226.689 496.848 229.979L498.42 283.051L492.668 313.466C492.668 313.466 502.476 332.233 505.621 351.082C505.621 351.082 488.923 363.496 450.025 363.496C424.989 363.496 410.236 351.082 410.236 351.082C410.236 351.082 419.402 303.742 417.892 295.031C417.892 295.031 406.264 287.81 406.347 269.623C406.429 251.435 434.652 222.468 434.652 222.468H445.121Z" fill="#3A4569"/>
<path opacity="0.4" d="M445.121 222.468L472.019 223.441C472.019 223.441 492.296 226.689 496.848 229.979L498.42 283.051L492.668 313.466C492.668 313.466 502.476 332.233 505.621 351.082C505.621 351.082 488.923 363.496 450.025 363.496C424.989 363.496 410.236 351.082 410.236 351.082C410.236 351.082 419.402 303.742 417.892 295.031C417.892 295.031 406.264 287.81 406.347 269.623C406.429 251.435 434.652 222.468 434.652 222.468H445.121Z" fill="black"/>
<path d="M456.542 165.403C456.551 169.599 455.314 173.702 452.99 177.195C450.665 180.688 447.357 183.412 443.484 185.024C439.611 186.637 435.346 187.064 431.23 186.252C427.114 185.44 423.331 183.425 420.36 180.463C417.389 177.501 415.364 173.724 414.54 169.61C413.716 165.496 414.13 161.231 415.731 157.353C417.332 153.475 420.047 150.159 423.533 147.824C427.018 145.489 431.118 144.241 435.314 144.237C440.933 144.237 446.323 146.465 450.303 150.432C454.282 154.4 456.526 159.784 456.542 165.403Z" fill="#263238"/>
<path d="M472.102 225.075L445.163 224.868L445.121 187.687L472.061 187.667L472.102 225.075Z" fill="#945959"/>
<path d="M445.266 220.296C450.762 218.239 455.784 215.091 460.03 211.041C464.276 206.99 467.658 202.122 469.971 196.729V187.667H445.142L445.266 220.296Z" fill="#703838"/>
<path d="M479.861 176.494C479.778 178.205 479.605 179.911 479.344 181.604C478.443 188.094 475.971 194.267 472.143 199.584C469.33 203.396 465.82 206.64 461.798 209.144C456.751 212.299 451.122 214.409 445.245 215.351C443.678 215.62 442.096 215.792 440.507 215.868C436.947 216.197 433.365 215.531 430.162 213.944C423.23 210.157 420.603 201.012 419.568 187.046C418.347 170.348 421.472 160.148 425.775 153.692C427.219 151.502 428.991 149.548 431.031 147.899C433.191 146.169 435.663 144.869 438.314 144.071C444.397 144.299 452.797 146.14 463.598 151.499C468.826 154.149 473.776 157.316 478.371 160.955C479.33 163.921 479.873 167.006 479.985 170.121C480.056 172.246 480.014 174.373 479.861 176.494Z" fill="#945959"/>
<path d="M482.385 176.762C482.385 177.3 482.199 177.838 482.096 178.376L479.344 181.645L474.233 187.646C473.55 187.783 472.847 187.783 472.164 187.646H471.936C470.012 187.211 467.653 185.577 467.653 179.783C467.653 179.783 437.631 177.714 430.99 148.002C431.628 146.544 432.624 145.27 433.886 144.299C435.344 144.159 436.809 144.118 438.273 144.175C444.356 144.402 452.756 146.244 463.557 151.603C468.795 154.217 473.758 157.35 478.371 160.955C479.923 162.155 481.33 163.355 482.613 164.555C483.232 168.607 483.155 172.736 482.385 176.762Z" fill="#263238"/>
<path d="M437.445 178.666L437.466 193.15L428.982 190.543L437.445 178.666Z" fill="#703838"/>
<path d="M450.211 180.197C450.211 180.782 450.037 181.354 449.712 181.841C449.387 182.328 448.925 182.707 448.384 182.931C447.844 183.155 447.249 183.213 446.675 183.099C446.101 182.985 445.574 182.703 445.16 182.289C444.746 181.876 444.464 181.348 444.35 180.774C444.236 180.2 444.295 179.606 444.519 179.065C444.743 178.524 445.122 178.062 445.608 177.737C446.095 177.412 446.667 177.238 447.252 177.238C448.037 177.238 448.79 177.55 449.344 178.105C449.899 178.66 450.211 179.412 450.211 180.197Z" fill="#263238"/>
<path d="M430.782 178.149C430.787 178.735 430.617 179.309 430.294 179.798C429.971 180.287 429.511 180.67 428.97 180.897C428.43 181.124 427.835 181.186 427.259 181.074C426.684 180.962 426.155 180.682 425.739 180.269C425.323 179.856 425.039 179.329 424.923 178.754C424.808 178.18 424.865 177.584 425.088 177.042C425.312 176.5 425.691 176.037 426.178 175.711C426.665 175.385 427.238 175.211 427.824 175.211C428.605 175.211 429.354 175.52 429.909 176.07C430.463 176.62 430.777 177.368 430.782 178.149Z" fill="#263238"/>
<path d="M424.244 172.024L430.017 168.59C430.017 168.59 427.803 166.293 425.589 167.679C424.965 168.193 424.505 168.878 424.266 169.65C424.027 170.423 424.019 171.248 424.244 172.024Z" fill="#263238"/>
<path d="M438.21 197.929C441.572 198.17 444.917 197.274 447.707 195.384C447.707 195.384 448.349 200.391 444.169 201.343C442.935 201.55 441.667 201.322 440.58 200.7C439.494 200.078 438.657 199.099 438.21 197.929Z" fill="#703838"/>
<path d="M471.812 188.763C471.72 186.315 472.172 183.877 473.137 181.625C473.602 180.22 474.469 178.983 475.632 178.067C476.794 177.151 478.2 176.596 479.675 176.473C487.248 176.266 488.282 183.549 488.179 186.135C487.91 192.943 482.406 200.309 472.143 200.619L471.812 188.763Z" fill="#945959"/>
<path d="M445.266 224.868C445.266 224.868 437.238 241.855 450.977 242.58C464.715 243.304 472.164 225.096 472.164 225.096L445.266 224.868Z" fill="#945959"/>
<path d="M311.335 241.835L354.082 358.944L395.836 390.829L443.59 369.373L487.703 408.664L444.728 290.479L403.036 255.325L351.144 271.671L311.335 241.835Z" fill="#EBEBEB"/>
<path d="M403.036 255.325L443.59 369.373L395.836 390.829L351.144 271.671L403.036 255.325Z" fill="#E0E0E0"/>
<path d="M329.005 317.17C328.464 315.081 328.73 312.865 329.75 310.963C331.819 306.824 335.957 299.665 338.212 300.783C341.233 302.335 351.351 320.398 346.116 330.867C341.502 340.116 331.57 326.605 329.005 317.17Z" fill="#945959"/>
<path d="M499.745 302.914L506.697 316.963L480.647 342.33C477.903 341.079 474.849 340.675 471.874 341.171C467.657 341.808 463.367 341.808 459.15 341.171C456.605 340.737 452.57 343.55 458.218 346.778C460.872 348.539 463.909 349.639 467.074 349.985C461.295 352.03 455.294 353.384 449.197 354.02C441.521 354.434 436.783 356.441 442.721 363.269C448.659 370.097 457.329 376.821 465.315 374.876C473.302 372.931 484.661 367.903 489.855 363.476C489.855 363.476 538.788 335.316 536.264 321.825C533.74 308.335 528.526 289.693 528.526 289.693L499.745 302.914Z" fill="#945959"/>
<path d="M494.324 228.655C494.324 228.655 478.951 240.718 483.772 259.443C488.593 278.168 499.745 302.893 499.745 302.893C499.745 302.893 523.022 305.459 528.526 289.672L513.256 246.221C511.901 242.37 509.716 238.863 506.855 235.949C503.995 233.035 500.529 230.785 496.703 229.358L494.324 228.655Z" fill="#3A4569"/>
<path opacity="0.6" d="M494.324 228.655C494.324 228.655 478.951 240.718 483.772 259.443C488.593 278.168 499.745 302.893 499.745 302.893C499.745 302.893 523.022 305.459 528.526 289.672L513.256 246.221C511.901 242.37 509.716 238.863 506.855 235.949C503.995 233.035 500.529 230.785 496.703 229.358L494.324 228.655Z" fill="black"/>
<path d="M466.35 349.923L462.129 338.316L453.19 337.923L450.583 346.778L456.998 349.985L466.35 349.923Z" fill="#EBEBEB"/>
<path d="M328.984 168.817C339.826 151.044 346.654 130.601 346.654 112.249C346.836 104.335 345.179 96.4876 341.812 89.3234L345.537 85.5991L331.053 77.3228C321.122 71.2811 307.404 71.9846 292.155 80.7782C262.07 98.1584 237.676 140.409 237.676 175.149C237.676 192.901 244.049 205.233 254.229 210.757L269.126 219.323V213.985C277.269 213.416 285.152 210.874 292.093 206.578C300.505 201.567 308.091 195.286 314.583 187.956C325.239 197.081 344.544 176.266 344.544 176.266C333.536 182.68 329.957 176.328 328.984 168.817Z" fill="#3A4569"/>
<path opacity="0.2" d="M328.984 168.817C339.826 151.044 346.654 130.601 346.654 112.249C346.836 104.335 345.179 96.4876 341.812 89.3234L345.537 85.5991L331.053 77.3228C321.122 71.2811 307.404 71.9846 292.155 80.7782C262.07 98.1584 237.676 140.409 237.676 175.149C237.676 192.901 244.049 205.233 254.229 210.757L269.126 219.323V213.985C277.269 213.416 285.152 210.874 292.093 206.578C300.505 201.567 308.091 195.286 314.583 187.956C325.239 197.081 344.544 176.266 344.544 176.266C333.536 182.68 329.957 176.328 328.984 168.817Z" fill="black"/>
<g opacity="0.3">
<path d="M329.398 154.065C329.398 154.065 323.46 188.515 344.564 176.328C344.564 176.328 319.839 203.019 310.88 182.763L329.398 154.065Z" fill="black"/>
</g>
<path d="M345.198 174.312C366.476 137.458 366.476 97.6243 345.199 85.3401C323.922 73.0559 289.425 92.9733 268.148 129.827C246.87 166.68 246.87 206.514 268.147 218.799C289.424 231.083 323.921 211.165 345.198 174.312Z" fill="#3A4569"/>
<path d="M343.882 162.445C343.882 162.445 337.964 196.874 359.069 184.708C359.069 184.708 334.24 211.378 325.384 191.143L343.882 162.445Z" fill="#3A4569"/>
<path d="M307.3 119.76C295.796 126.381 286.485 142.519 286.485 155.782C286.485 169.045 307.3 191.349 307.3 191.349C307.3 191.349 328.094 145.023 328.094 131.76C328.094 118.497 318.784 113.118 307.3 119.76ZM307.3 153.92C302.397 156.755 298.445 154.458 298.445 148.809C298.607 145.736 299.494 142.746 301.033 140.081C302.572 137.417 304.72 135.154 307.3 133.478C312.183 130.643 316.156 132.94 316.156 138.588C315.988 141.66 315.099 144.649 313.561 147.313C312.022 149.976 309.877 152.24 307.3 153.92Z" fill="#3A4569"/>
<path opacity="0.5" d="M307.3 119.76C295.796 126.381 286.485 142.519 286.485 155.782C286.485 169.045 307.3 191.349 307.3 191.349C307.3 191.349 328.094 145.023 328.094 131.76C328.094 118.497 318.784 113.118 307.3 119.76ZM307.3 153.92C302.397 156.755 298.445 154.458 298.445 148.809C298.607 145.736 299.494 142.746 301.033 140.081C302.572 137.417 304.72 135.154 307.3 133.478C312.183 130.643 316.156 132.94 316.156 138.588C315.988 141.66 315.099 144.649 313.561 147.313C312.022 149.976 309.877 152.24 307.3 153.92Z" fill="black"/>
<path d="M712.177 594.136V516.835H651.946V594.757C651.946 599.226 654.905 603.674 660.781 607.171C672.575 613.978 691.672 613.978 703.466 607.171C709.652 603.571 712.57 598.833 712.177 594.136Z" fill="#263238"/>
<path d="M703.466 504.586C715.239 511.373 715.239 522.422 703.466 529.208C691.693 535.995 672.575 536.016 660.781 529.208C648.987 522.401 649.008 511.373 660.781 504.586C672.554 497.8 691.672 497.779 703.466 504.586Z" fill="#37474F"/>
<path d="M582.611 71.1362L675.513 124.787V70.681L582.611 17.0507L557.203 29.4237L582.611 71.1362Z" fill="#3A4569"/>
<path opacity="0.3" d="M582.611 71.1362L675.513 124.787V70.681L582.611 17.0507L557.203 29.4237L582.611 71.1362Z" fill="white"/>
<path d="M578.949 72.9364L671.85 126.587V72.4812L578.949 18.8508L553.541 31.2239L578.949 72.9364Z" fill="#3A4569"/>
<path opacity="0.7" d="M578.949 72.9364L671.85 126.587V72.4812L578.949 18.8508L553.541 31.2239L578.949 72.9364Z" fill="white"/>
<path d="M781.656 71.1362L688.755 124.787V70.681L781.656 17.0507L807.064 29.4237L781.656 71.1362Z" fill="#3A4569"/>
<path opacity="0.3" d="M781.656 71.1362L688.755 124.787V70.681L781.656 17.0507L807.064 29.4237L781.656 71.1362Z" fill="white"/>
<path d="M785.318 72.9364L692.417 126.587V72.4812L785.318 18.8508L810.727 31.2239L785.318 72.9364Z" fill="#3A4569"/>
<path opacity="0.5" d="M785.318 72.9364L692.417 126.587V72.4812L785.318 18.8508L810.727 31.2239L785.318 72.9364Z" fill="white"/>
<path d="M723.583 69.5046L725.42 68.4487V75.9405L723.583 76.9964V69.5046ZM721.078 78.4363L719.24 79.4922V72.0004L721.078 70.9445V78.4363ZM723.713 73.9999L720.948 75.5891V73.8339L723.713 72.2447V73.9999ZM729.157 73.8894C728.606 74.2058 728.118 74.3583 727.691 74.3467C727.264 74.3352 726.927 74.1757 726.679 73.8685C726.438 73.5505 726.317 73.0989 726.317 72.5139C726.317 71.9288 726.438 71.3422 726.679 70.754C726.927 70.1623 727.264 69.6189 727.691 69.1239C728.118 68.6217 728.606 68.2124 729.157 67.896C729.707 67.5796 730.196 67.4271 730.623 67.4387C731.056 67.4395 731.393 67.5954 731.634 67.9062C731.876 68.2171 731.996 68.665 731.996 69.2501C731.996 69.8352 731.876 70.4254 731.634 71.0207C731.393 71.6088 731.056 72.1558 730.623 72.6615C730.196 73.1637 729.707 73.573 729.157 73.8894ZM729.157 72.2733C729.361 72.156 729.54 71.9994 729.695 71.8035C729.856 71.604 729.983 71.3742 730.075 71.1139C730.168 70.8465 730.215 70.5666 730.215 70.274C730.215 69.9815 730.168 69.762 730.075 69.6156C729.983 69.462 729.856 69.3779 729.695 69.3633C729.54 69.3452 729.361 69.3947 729.157 69.5121C728.959 69.6258 728.779 69.7824 728.619 69.9819C728.464 70.1778 728.337 70.4077 728.238 70.6715C728.145 70.9246 728.099 71.1974 728.099 71.4899C728.099 71.7825 728.145 72.0091 728.238 72.1698C728.337 72.3199 728.464 72.404 728.619 72.4221C728.779 72.4367 728.959 72.3871 729.157 72.2733ZM735.054 70.5002C734.411 70.8693 733.911 70.9752 733.553 70.8178C733.195 70.6532 733.016 70.2006 733.016 69.4598V64.4917L734.776 63.4802V68.4269C734.776 68.6335 734.825 68.7689 734.924 68.8332C735.023 68.8904 735.149 68.8746 735.304 68.7859C735.514 68.6652 735.693 68.5017 735.841 68.2955L736.276 69.4663C736.128 69.6654 735.946 69.852 735.73 70.0261C735.514 70.2073 735.288 70.3653 735.054 70.5002ZM732.284 67.9359V66.4187L735.924 64.3265V65.8436L732.284 67.9359ZM739.441 67.9787C738.848 68.3194 738.33 68.4893 737.885 68.4884C737.446 68.4769 737.104 68.3177 736.857 68.0109C736.616 67.6935 736.495 67.2463 736.495 66.6694C736.495 66.0924 736.613 65.5121 736.847 64.9285C737.088 64.3343 737.419 63.7918 737.839 63.3012C738.259 62.8034 738.731 62.4037 739.256 62.102C739.75 61.8181 740.201 61.6765 740.608 61.6773C741.016 61.671 741.34 61.823 741.581 62.1333C741.822 62.4436 741.942 62.9193 741.942 63.5604C741.942 63.6316 741.939 63.7153 741.933 63.8114C741.927 63.9076 741.921 63.9966 741.915 64.0785L737.941 66.3624V65.294L740.979 63.5478L740.312 64.2302C740.318 63.9631 740.275 63.7601 740.182 63.621C740.096 63.4784 739.972 63.3998 739.812 63.3852C739.657 63.3671 739.475 63.4184 739.265 63.539C739.055 63.6597 738.87 63.8196 738.709 64.0187C738.555 64.2143 738.435 64.4366 738.348 64.6858C738.262 64.9278 738.218 65.1805 738.218 65.4441V65.7539C738.218 66.0388 738.268 66.2562 738.367 66.406C738.472 66.5522 738.62 66.6273 738.811 66.6312C739.003 66.628 739.231 66.5501 739.497 66.3975C739.744 66.2555 739.954 66.0957 740.127 65.918C740.306 65.7296 740.482 65.5002 740.655 65.2299L741.581 65.8087C741.34 66.2534 741.044 66.6588 740.692 67.0249C740.34 67.3839 739.923 67.7018 739.441 67.9787ZM742.754 65.9787V58.0511L744.514 57.0396V64.9672L742.754 65.9787Z" fill="#455A64"/>
<path d="M597.018 46.0275L598.855 47.0834V54.5752L597.018 53.5193V46.0275ZM594.512 52.0794L592.675 51.0235V43.5317L594.512 44.5876V52.0794ZM597.148 50.6722L594.382 49.083V47.3278L597.148 48.917V50.6722ZM600.067 55.272V49.4713L601.83 50.4845V56.2853L600.067 55.272ZM600.949 49.3357C600.627 49.1509 600.367 48.8981 600.169 48.5774C599.972 48.2567 599.873 47.943 599.873 47.6362C599.873 47.3294 599.972 47.1294 600.169 47.0362C600.367 46.9431 600.627 46.9889 600.949 47.1738C601.271 47.3587 601.53 47.6079 601.728 47.9215C601.926 48.2279 602.025 48.5345 602.025 48.8413C602.025 49.1624 601.926 49.373 601.728 49.4733C601.537 49.57 601.277 49.5242 600.949 49.3357ZM602.976 56.9438V49.0025L604.739 50.0157V57.957L602.976 56.9438ZM605.885 58.6155V50.6742L607.648 51.6875V59.6288L605.885 58.6155ZM610.622 61.4342C610.195 61.1889 609.777 60.8918 609.369 60.543C608.967 60.1977 608.642 59.8684 608.395 59.5549L608.924 58.4676C609.159 58.7668 609.434 59.057 609.75 59.3382C610.065 59.6123 610.374 59.8364 610.678 60.0106C610.975 60.1813 611.179 60.2629 611.29 60.2556C611.408 60.2518 611.466 60.1892 611.466 60.0679C611.466 59.9538 611.411 59.8397 611.299 59.7258C611.194 59.6083 611.052 59.4837 610.872 59.352C610.699 59.224 610.507 59.0816 610.297 58.9251C610.087 58.7685 609.873 58.5995 609.657 58.418C609.447 58.2329 609.252 58.0281 609.072 57.8037C608.899 57.5758 608.76 57.3245 608.655 57.05C608.55 56.7755 608.497 56.4742 608.497 56.146C608.497 55.775 608.59 55.5001 608.775 55.3213C608.967 55.139 609.245 55.0707 609.61 55.1163C609.975 55.1548 610.421 55.3252 610.947 55.6274C611.299 55.8301 611.655 56.0773 612.014 56.3691C612.379 56.6574 612.685 56.9546 612.932 57.261L612.404 58.3376C612.156 58.0313 611.909 57.7785 611.661 57.5792C611.414 57.3728 611.179 57.2056 610.956 57.0776C610.659 56.9069 610.449 56.8253 610.325 56.8327C610.207 56.8436 610.149 56.9062 610.149 57.0203C610.149 57.1345 610.201 57.2539 610.306 57.3785C610.412 57.4961 610.551 57.6224 610.724 57.7577C610.903 57.8893 611.098 58.0334 611.309 58.1899C611.519 58.3394 611.729 58.5066 611.94 58.6917C612.156 58.8804 612.351 59.0887 612.524 59.3167C612.704 59.5411 612.846 59.7905 612.951 60.065C613.056 60.3324 613.109 60.6301 613.109 60.9583C613.109 61.3151 613.013 61.5811 612.821 61.7563C612.636 61.935 612.357 62.0033 611.986 61.9613C611.621 61.9227 611.166 61.747 610.622 61.4342Z" fill="#455A64"/>
<path d="M688.072 518.656C684.261 520.187 680.006 520.187 676.195 518.656C674.889 518.138 673.769 517.24 672.98 516.078C672.19 514.916 671.768 513.543 671.768 512.139V39.2518H692.458V512.139C692.464 513.539 692.049 514.909 691.267 516.072C690.485 517.234 689.372 518.134 688.072 518.656Z" fill="#455A64"/>
<path d="M698.128 30.0445C698.128 33.2078 697.189 36.3 695.432 38.9302C693.675 41.5604 691.177 43.6104 688.254 44.8209C685.332 46.0315 682.116 46.3482 679.013 45.7311C675.911 45.114 673.061 43.5907 670.824 41.3539C668.587 39.1171 667.064 36.2673 666.447 33.1647C665.83 30.0622 666.147 26.8464 667.357 23.9239C668.568 21.0014 670.618 18.5034 673.248 16.746C675.878 14.9886 678.97 14.0505 682.134 14.0505C686.375 14.0505 690.444 15.7356 693.443 18.7351C696.442 21.7345 698.128 25.8026 698.128 30.0445Z" fill="#37474F"/>
<path d="M785.318 188.577L688.755 82.661L692.417 80.8609L785.318 134.491L810.727 176.204L785.318 188.577Z" fill="#3A4569"/>
<path opacity="0.3" d="M785.318 188.577L688.755 82.661L692.417 80.8609L785.318 134.491L810.727 176.204L785.318 188.577Z" fill="white"/>
<path d="M781.656 190.377L688.755 136.747V82.661L781.656 136.291L807.064 178.004L781.656 190.377Z" fill="#3A4569"/>
<path opacity="0.7" d="M781.656 190.377L688.755 136.747V82.661L781.656 136.291L807.064 178.004L781.656 190.377Z" fill="white"/>
<path d="M578.949 188.577L675.513 82.661L671.85 80.8609L578.949 134.491L553.541 176.204L578.949 188.577Z" fill="#3A4569"/>
<path opacity="0.3" d="M578.949 188.577L675.513 82.661L671.85 80.8609L578.949 134.491L553.541 176.204L578.949 188.577Z" fill="white"/>
<path d="M582.611 190.377L675.513 136.747V82.661L582.611 136.291L557.203 178.004L582.611 190.377Z" fill="#3A4569"/>
<path opacity="0.5" d="M582.611 190.377L675.513 136.747V82.661L582.611 136.291L557.203 178.004L582.611 190.377Z" fill="white"/>
<path d="M592.758 151.268V143.777L596.08 141.867C596.934 141.377 597.571 141.193 597.991 141.315C598.412 141.43 598.622 141.78 598.622 142.365C598.622 142.75 598.533 143.14 598.353 143.536C598.18 143.921 597.933 144.292 597.611 144.648C597.296 144.993 596.918 145.292 596.479 145.545L596.665 144.924C597.122 144.661 597.521 144.514 597.862 144.482C598.202 144.444 598.465 144.525 598.65 144.725C598.842 144.914 598.938 145.227 598.938 145.662C598.938 146.311 598.709 146.949 598.251 147.576C597.8 148.192 597.138 148.751 596.266 149.253L592.758 151.268ZM594.577 148.693L596.117 147.807C596.433 147.626 596.671 147.429 596.832 147.215C596.999 146.99 597.082 146.75 597.082 146.493C597.082 146.236 596.999 146.095 596.832 146.07C596.671 146.034 596.433 146.106 596.117 146.288L594.447 147.248V145.781L595.839 144.981C596.148 144.804 596.38 144.61 596.535 144.399C596.689 144.189 596.767 143.963 596.767 143.72C596.767 143.478 596.689 143.344 596.535 143.318C596.38 143.286 596.148 143.359 595.839 143.537L594.577 144.262V148.693ZM602.441 145.799C601.847 146.141 601.328 146.311 600.882 146.31C600.443 146.299 600.1 146.139 599.852 145.832C599.611 145.514 599.491 145.066 599.491 144.488C599.491 143.91 599.608 143.329 599.843 142.744C600.084 142.149 600.415 141.605 600.836 141.114C601.257 140.615 601.73 140.215 602.256 139.913C602.751 139.628 603.202 139.486 603.611 139.487C604.019 139.481 604.344 139.633 604.585 139.944C604.826 140.255 604.947 140.731 604.947 141.374C604.947 141.445 604.944 141.529 604.937 141.625C604.931 141.721 604.925 141.811 604.919 141.893L600.938 144.18V143.11L603.982 141.361L603.314 142.045C603.32 141.777 603.276 141.574 603.184 141.434C603.097 141.291 602.973 141.213 602.813 141.198C602.658 141.18 602.475 141.231 602.265 141.352C602.055 141.473 601.869 141.633 601.708 141.833C601.554 142.029 601.433 142.251 601.346 142.501C601.26 142.743 601.217 142.997 601.217 143.261V143.571C601.217 143.856 601.266 144.074 601.365 144.224C601.47 144.371 601.619 144.446 601.81 144.45C602.002 144.447 602.231 144.369 602.497 144.216C602.744 144.073 602.955 143.913 603.128 143.735C603.307 143.547 603.484 143.317 603.657 143.046L604.585 143.626C604.344 144.071 604.047 144.477 603.694 144.844C603.341 145.204 602.924 145.522 602.441 145.799ZM608.695 142.109V141.028L608.575 140.83V138.839C608.575 138.518 608.488 138.322 608.315 138.25C608.148 138.168 607.879 138.233 607.507 138.446C607.266 138.585 607.022 138.772 606.774 139.007C606.527 139.235 606.317 139.477 606.143 139.733L605.549 138.694C605.834 138.316 606.174 137.957 606.57 137.615C606.972 137.263 607.371 136.973 607.767 136.745C608.584 136.276 609.215 136.131 609.66 136.31C610.112 136.479 610.338 137.023 610.338 137.944V141.165L608.695 142.109ZM607.21 143.059C606.808 143.29 606.468 143.407 606.19 143.41C605.911 143.413 605.698 143.321 605.549 143.136C605.407 142.946 605.336 142.684 605.336 142.349C605.336 141.992 605.413 141.641 605.568 141.295C605.729 140.938 605.973 140.598 606.301 140.274C606.629 139.943 607.053 139.628 607.572 139.33L608.76 138.647V139.706L607.814 140.25C607.529 140.414 607.328 140.583 607.21 140.758C607.099 140.929 607.043 141.103 607.043 141.282C607.043 141.46 607.102 141.569 607.22 141.608C607.337 141.648 607.498 141.609 607.702 141.492C607.894 141.381 608.067 141.228 608.222 141.033C608.383 140.826 608.5 140.587 608.575 140.316L608.816 140.927C608.723 141.38 608.54 141.788 608.268 142.151C608.002 142.504 607.65 142.806 607.21 143.059ZM614.084 139.108C613.527 139.428 613.029 139.586 612.59 139.582C612.157 139.574 611.817 139.416 611.57 139.109C611.322 138.794 611.198 138.344 611.198 137.759C611.198 137.174 611.322 136.586 611.57 135.994C611.817 135.402 612.157 134.857 612.59 134.359C613.029 133.849 613.527 133.435 614.084 133.115C614.653 132.788 615.145 132.644 615.56 132.684C615.974 132.724 616.268 132.948 616.441 133.355L615.077 134.942C614.96 134.738 614.814 134.625 614.641 134.604C614.468 134.575 614.279 134.619 614.075 134.736C613.871 134.854 613.685 135.014 613.518 135.217C613.351 135.42 613.218 135.653 613.119 135.917C613.026 136.17 612.98 136.443 612.98 136.735C612.98 137.035 613.026 137.262 613.119 137.415C613.218 137.565 613.351 137.646 613.518 137.657C613.685 137.668 613.871 137.615 614.075 137.497C614.279 137.38 614.468 137.211 614.641 136.99C614.814 136.762 614.96 136.479 615.077 136.14L616.441 136.159C616.268 136.765 615.974 137.326 615.56 137.843C615.145 138.359 614.653 138.781 614.084 139.108ZM620.362 129.507C620.752 129.283 621.105 129.173 621.42 129.177C621.736 129.174 621.983 129.31 622.163 129.585C622.348 129.857 622.441 130.292 622.441 130.891V134.209L620.678 135.222V132.236C620.678 131.823 620.604 131.566 620.455 131.465C620.313 131.354 620.112 131.374 619.852 131.523C619.667 131.63 619.496 131.777 619.342 131.966C619.187 132.148 619.066 132.363 618.98 132.613C618.893 132.863 618.85 133.148 618.85 133.469V136.273L617.087 137.286V129.345L618.85 128.332V132.12L618.442 131.873C618.633 131.342 618.896 130.877 619.23 130.478C619.564 130.072 619.942 129.748 620.362 129.507Z" fill="#455A64"/>
<path d="M709.04 116.841V109.349L712.009 111.055C712.603 111.397 713.113 111.801 713.54 112.267C713.973 112.737 714.307 113.25 714.542 113.806C714.777 114.355 714.895 114.915 714.895 115.486C714.895 116.05 714.777 116.471 714.542 116.75C714.307 117.028 713.973 117.157 713.54 117.137C713.113 117.113 712.603 116.93 712.009 116.589L710.06 115.469L710.877 115.018V117.897L709.04 116.841ZM710.877 115.242L710.06 113.799L711.898 114.855C712.281 115.076 712.566 115.143 712.751 115.057C712.943 114.974 713.039 114.762 713.039 114.419C713.039 114.07 712.943 113.744 712.751 113.441C712.566 113.141 712.281 112.881 711.898 112.661L710.06 111.605L710.877 111.101V115.242ZM718.733 122.412V121.331L718.613 120.994V119.003C718.613 118.682 718.526 118.386 718.353 118.115C718.186 117.841 717.917 117.597 717.546 117.384C717.304 117.245 717.06 117.151 716.813 117.102C716.565 117.045 716.355 117.046 716.182 117.103L715.588 115.381C715.872 115.331 716.212 115.362 716.608 115.475C717.01 115.585 717.409 115.754 717.805 115.981C718.622 116.451 719.253 117.031 719.698 117.722C720.15 118.41 720.376 119.214 720.376 120.134V123.356L718.733 122.412ZM717.249 121.655C716.847 121.424 716.506 121.15 716.228 120.833C715.95 120.516 715.736 120.179 715.588 119.823C715.445 119.47 715.374 119.126 715.374 118.79C715.374 118.433 715.452 118.171 715.606 118.003C715.767 117.832 716.011 117.772 716.339 117.825C716.667 117.871 717.091 118.043 717.611 118.342L718.798 119.024V120.084L717.852 119.54C717.567 119.376 717.366 119.314 717.249 119.354C717.137 119.397 717.082 119.508 717.082 119.686C717.082 119.864 717.14 120.041 717.258 120.215C717.375 120.39 717.536 120.536 717.74 120.653C717.932 120.763 718.105 120.809 718.26 120.791C718.421 120.77 718.538 120.666 718.613 120.48L718.854 121.368C718.761 121.714 718.579 121.913 718.306 121.963C718.04 122.01 717.688 121.907 717.249 121.655ZM721.489 123.995V118.194L723.168 119.16V120.851L722.918 120.225C723.066 119.875 723.307 119.689 723.641 119.667C723.975 119.638 724.381 119.76 724.857 120.034V121.864C724.777 121.804 724.705 121.756 724.644 121.72C724.588 121.681 724.526 121.642 724.458 121.603C724.099 121.397 723.808 121.344 723.586 121.444C723.363 121.537 723.252 121.837 723.252 122.344V125.009L721.489 123.995ZM727.051 126.122L727.097 123.719L729.148 122.596L731.236 123.796L728.962 125.197L728.062 125.515L727.051 126.122ZM725.585 126.349V118.408L727.348 119.421V127.362L725.585 126.349ZM729.278 128.472L727.737 125.36L728.832 124.427L731.412 129.698L729.278 128.472Z" fill="#455A64"/>
<path d="M164.203 6.72603L151.789 13.823V9.41583C151.789 9.10546 151.789 8.77442 151.789 8.48475C151.789 8.19508 151.789 7.88472 151.789 7.59505V7.49159C151.334 1.63612 146.906 -0.598486 141.443 2.52582C138.977 4.01663 136.86 6.0207 135.236 8.40198C134.015 0.477433 127.539 -2.39858 119.718 2.19476C115.162 5.1835 111.373 9.20129 108.656 13.9239C105.939 18.6466 104.37 23.9418 104.076 29.3824V38.8794C104.078 39.6225 103.889 40.3537 103.527 41.0024C103.164 41.6511 102.641 42.1955 102.007 42.5831L94.6823 46.8661C93.0852 47.7881 91.7564 49.111 90.8274 50.7041C89.8984 52.2972 89.4014 54.1052 89.3855 55.9493C89.385 56.7122 89.5854 57.4619 89.9666 58.1228C90.3477 58.7837 90.8962 59.3326 91.5568 59.7143C92.2174 60.096 92.9669 60.297 93.7299 60.2971C94.4928 60.2973 95.2423 60.0965 95.9031 59.715L163.996 20.4026C165.811 19.3552 167.316 17.8464 168.358 16.0295C169.401 14.2126 169.945 12.1522 169.935 10.0572C169.93 9.38787 169.751 8.73121 169.416 8.15212C169.08 7.57302 168.599 7.09152 168.02 6.75514C167.441 6.41877 166.785 6.23916 166.115 6.23405C165.446 6.22895 164.787 6.39852 164.203 6.72603Z" fill="#E0E0E0"/>
<path d="M234.221 24.396L225.655 29.2583V26.2374C225.655 26.0098 225.655 25.8029 225.655 25.5753C225.665 25.3755 225.665 25.1752 225.655 24.9753C225.344 20.9613 222.303 19.4095 218.599 21.5613C216.953 22.602 215.543 23.9765 214.461 25.596C213.633 20.1544 209.185 18.1887 203.826 21.2924C200.651 23.3146 198 26.0601 196.091 29.304C194.181 32.5479 193.067 36.198 192.839 39.9554V46.4316C192.837 46.9446 192.703 47.4484 192.449 47.8943C192.195 48.3401 191.831 48.7129 191.391 48.9766L186.342 51.9146C185.263 52.5546 184.366 53.4619 183.739 54.5491C183.112 55.6364 182.776 56.8669 182.763 58.1219C182.76 58.6484 182.896 59.1664 183.158 59.6231C183.42 60.0798 183.799 60.4589 184.255 60.7218C184.711 60.9846 185.229 61.1218 185.756 61.1194C186.282 61.1171 186.799 60.9752 187.253 60.7082L233.993 33.8103C235.238 33.0917 236.274 32.0612 237 30.8205C237.725 29.5797 238.115 28.1713 238.131 26.734C238.133 26.2743 238.015 25.8221 237.789 25.4219C237.563 25.0216 237.236 24.6871 236.842 24.4512C236.447 24.2153 235.998 24.0861 235.539 24.0765C235.079 24.0668 234.625 24.1769 234.221 24.396Z" fill="#E0E0E0"/>
</svg>
